<?xml version="1.0" encoding="UTF-8" standalone="no"?>
<!DOCTYPE svg PUBLIC "-//W3C//DTD SVG 1.1//EN" "http://www.w3.org/Graphics/SVG/1.1/DTD/svg11.dtd">
<svg width="100%" height="100%" viewBox="0 0 3783 717" version="1.1" xmlns="http://www.w3.org/2000/svg" xmlns:xlink="http://www.w3.org/1999/xlink" xml:space="preserve" xmlns:serif="http://www.serif.com/" style="fill-rule:evenodd;clip-rule:evenodd;stroke-linecap:round;stroke-linejoin:round;stroke-miterlimit:1.5;">
    <g transform="matrix(1,0,0,1,-8998.1,-4262.63)">
        <g transform="matrix(0.997922,0,0,0.951749,-3729.1,2225.33)">
            <g transform="matrix(2.07623,0,0,2.17696,11712,1425.6)">
                <path d="M600.911,383.902C600.378,390.035 602.244,391.902 607.311,391.902L635.044,391.902C640.644,391.902 643.31,389.502 643.844,383.902L644.91,374.036C645.177,370.836 645.177,369.769 645.177,368.702C645.177,348.169 629.444,328.437 584.645,328.437C534.779,328.437 520.113,351.103 517.446,374.036L515.846,387.369C515.58,390.035 515.313,392.435 515.313,394.035C515.313,409.235 525.446,420.968 536.112,424.968L572.645,439.368C580.912,442.568 593.445,447.367 593.445,455.901C593.445,456.167 593.445,457.234 593.178,459.101L592.645,462.567C590.778,474.834 580.645,479.367 567.579,479.367C554.779,479.367 545.446,475.634 545.446,465.234C545.446,463.634 545.446,462.301 545.712,460.434L547.046,450.567C547.846,445.501 546.246,442.568 540.646,442.568L512.913,442.568C507.313,442.568 504.646,444.968 504.113,450.567L502.246,466.3C501.713,470.034 501.713,471.634 501.713,472.967C501.713,494.3 519.313,514.033 564.912,514.033C615.578,514.033 632.644,491.367 635.311,468.434L637.177,451.901C637.444,448.967 637.71,447.101 637.71,445.234C637.71,428.701 626.511,415.368 609.178,409.235L566.245,394.035C563.579,392.969 559.045,391.102 559.045,384.169L559.045,382.569L559.312,379.902C560.912,367.636 569.712,363.102 581.978,363.102C593.711,363.102 601.178,367.369 601.178,378.302L601.178,379.902L600.911,383.902Z" style="fill-rule:nonzero;"/>
                <path d="M804.907,452.167C805.44,447.634 804.64,444.168 798.507,444.168L771.041,444.168C765.441,444.168 763.041,446.568 762.241,452.167L761.175,460.701C759.575,472.967 750.242,478.034 737.175,478.034C725.175,478.034 716.376,473.767 716.376,463.367C716.376,462.567 716.642,460.434 716.909,458.301L726.509,381.769C728.109,369.502 737.708,364.436 750.775,364.436C763.041,364.436 771.308,368.702 771.308,378.302C771.308,379.369 771.041,381.769 770.774,383.369L770.241,386.302C769.441,391.102 771.308,394.302 777.174,394.302L804.64,394.302C810.24,394.302 812.107,391.902 812.907,386.302L814.24,375.902C814.507,372.969 814.774,370.569 814.774,368.702C814.774,347.636 798.241,328.437 753.175,328.437C701.709,328.437 685.976,351.103 683.31,374.036L672.11,466.3C671.843,469.234 671.576,471.634 671.576,473.5C671.576,494.567 687.843,514.033 733.175,514.033C784.641,514.033 800.374,491.367 803.04,468.434L804.907,452.167Z" style="fill-rule:nonzero;"/>
                <path d="M839.84,466.3C839.573,468.967 839.306,471.634 839.306,473.234C839.306,494.567 857.973,514.033 903.305,514.033C954.771,514.033 973.17,491.367 975.837,468.434L987.037,376.169C987.303,373.769 987.57,370.836 987.57,369.236C987.57,348.169 968.637,328.437 923.305,328.437C871.839,328.437 853.706,351.103 851.04,374.036L839.84,466.3ZM932.638,460.701C931.038,472.967 920.105,478.034 907.038,478.034C893.705,478.034 884.106,473.767 884.106,463.367C884.106,462.567 884.372,460.434 884.639,458.301L894.239,381.769C895.839,369.502 908.372,364.436 920.105,364.436C933.438,364.436 942.771,368.702 942.771,379.102C942.771,379.902 942.504,381.769 942.238,384.169L932.638,460.701Z" style="fill-rule:nonzero;"/>
                <path d="M1029.97,330.57C1024.37,330.57 1021.7,332.436 1021.17,338.036L1018.5,358.836C1017.7,364.436 1020.1,366.569 1025.7,366.569L1059.84,366.569L1042.77,503.9C1041.97,509.5 1044.1,511.9 1049.7,511.9L1078.5,511.9C1084.1,511.9 1085.97,509.5 1086.77,503.9L1103.84,366.569L1137.97,366.569C1143.57,366.569 1146.23,364.436 1146.77,358.836L1149.43,338.036C1150.23,332.436 1147.83,330.57 1142.23,330.57L1029.97,330.57Z" style="fill-rule:nonzero;"/>
                <path d="M1176.37,330.57C1170.77,330.57 1168.1,332.436 1167.57,338.036L1164.9,358.836C1164.1,364.436 1166.5,366.569 1172.1,366.569L1206.23,366.569L1189.17,503.9C1188.37,509.5 1190.5,511.9 1196.1,511.9L1224.9,511.9C1230.5,511.9 1232.37,509.5 1233.16,503.9L1250.23,366.569L1284.36,366.569C1289.96,366.569 1292.63,364.436 1293.16,358.836L1295.83,338.036C1296.63,332.436 1294.23,330.57 1288.63,330.57L1176.37,330.57Z" style="fill-rule:nonzero;"/>
                <path d="M1512.09,338.57C1511.56,333.503 1509.43,330.57 1503.83,330.57L1476.89,330.57C1471.29,330.57 1468.36,333.503 1466.49,338.57L1438.5,413.235C1434.76,423.101 1431.03,435.634 1430.76,436.968C1430.76,436.168 1430.5,421.501 1429.43,413.235L1420.36,338.57C1419.83,333.503 1417.69,330.57 1412.1,330.57L1383.03,330.57C1377.43,330.57 1375.56,333.503 1376.1,338.57L1397.43,503.9C1397.96,508.966 1400.63,511.9 1405.43,511.9L1433.43,511.9C1439.03,511.9 1441.96,509.5 1444.09,503.9L1472.89,427.368C1476.09,418.568 1479.56,401.768 1480.09,399.902C1480.09,400.702 1479.56,419.635 1480.63,427.101L1490.23,503.9C1490.76,508.966 1493.43,511.9 1498.23,511.9L1526.23,511.9C1531.83,511.9 1534.76,509.5 1536.89,503.9L1598.76,338.57C1600.62,333.503 1599.56,330.57 1593.96,330.57L1568.62,330.57C1563.03,330.57 1560.09,333.503 1558.23,338.57L1530.49,413.235C1525.96,425.501 1522.49,440.434 1522.23,442.034C1522.23,441.501 1522.23,422.568 1521.16,412.968L1512.09,338.57Z" style="fill-rule:nonzero;"/>
                <path d="M1666.49,330.57C1660.89,330.57 1657.96,332.97 1655.56,338.57L1587.29,503.9C1585.16,508.966 1586.76,511.9 1592.09,511.9L1619.56,511.9C1625.16,511.9 1627.82,508.966 1629.69,503.9L1639.82,478.3L1684.09,478.3L1687.82,503.9C1688.62,508.966 1690.76,511.9 1696.36,511.9L1725.42,511.9C1731.02,511.9 1732.89,508.966 1732.09,503.9L1704.09,338.57C1703.29,333.236 1700.89,330.57 1695.29,330.57L1666.49,330.57ZM1678.76,443.634L1653.69,443.634L1659.56,429.235C1665.69,414.035 1674.76,375.369 1675.29,373.502C1675.29,374.036 1674.22,408.702 1676.89,429.235L1678.76,443.634Z" style="fill-rule:nonzero;"/>
                <path d="M1829.42,338.57C1830.22,332.97 1828.62,330.57 1823.02,330.57L1794.22,330.57C1788.62,330.57 1786.22,332.97 1785.42,338.57L1765.15,503.9C1764.62,509.233 1766.22,511.9 1771.02,511.9L1860.62,511.9C1866.22,511.9 1868.62,509.766 1869.42,504.166L1872.09,483.367C1872.89,477.767 1870.49,475.9 1864.89,475.9L1812.62,475.9L1829.42,338.57Z" style="fill-rule:nonzero;"/>
                <path d="M1898.75,330.57C1893.15,330.57 1890.49,332.436 1889.95,338.036L1887.29,358.836C1886.49,364.436 1888.89,366.569 1894.49,366.569L1928.62,366.569L1911.55,503.9C1910.75,509.5 1912.88,511.9 1918.49,511.9L1947.28,511.9C1952.88,511.9 1954.75,509.5 1955.55,503.9L1972.62,366.569L2006.75,366.569C2012.35,366.569 2015.02,364.436 2015.55,358.836L2018.22,338.036C2019.02,332.436 2016.62,330.57 2011.02,330.57L1898.75,330.57Z" style="fill-rule:nonzero;"/>
                <path d="M2130.48,511.9C2136.08,511.9 2138.48,509.766 2139.28,504.166L2141.95,483.367C2142.75,477.767 2140.35,475.9 2134.75,475.9L2077.15,475.9L2082.22,435.901L2132.88,435.901C2138.48,435.901 2140.88,433.768 2141.68,428.168L2144.08,408.702C2144.88,403.102 2142.75,401.235 2137.15,401.235L2086.48,401.235L2090.75,366.569L2145.68,366.569C2151.28,366.569 2153.68,364.436 2154.48,358.836L2157.15,338.036C2157.95,332.436 2155.55,330.57 2149.95,330.57L2058.75,330.57C2053.15,330.57 2050.75,332.97 2049.95,338.57L2029.68,503.9C2028.88,509.5 2031.02,511.9 2036.62,511.9L2130.48,511.9Z" style="fill-rule:nonzero;"/>
                <path d="M2324.34,400.702L2326.74,379.902C2327.01,377.769 2327.28,374.836 2327.28,373.502C2327.28,350.569 2308.34,330.57 2262.74,330.57L2207.55,330.57C2201.95,330.57 2199.55,332.97 2198.75,338.57L2178.48,503.9C2177.68,510.3 2180.88,511.9 2185.41,511.9L2214.21,511.9C2219.81,511.9 2221.95,509.5 2222.48,503.9L2229.68,444.968L2249.95,444.968L2266.21,503.9C2267.28,508.166 2268.35,511.9 2273.14,511.9L2301.68,511.9C2307.01,511.9 2311.28,508.966 2309.94,503.9L2292.08,439.101C2313.68,431.368 2322.21,416.435 2324.34,400.702ZM2261.68,366.569C2275.81,366.569 2283.01,372.169 2283.01,382.569C2283.01,383.369 2283.01,384.969 2282.74,387.102L2281.94,392.702C2280.08,404.968 2269.41,408.968 2255.55,408.968L2234.21,408.968L2239.55,366.569L2261.68,366.569Z" style="fill-rule:nonzero;"/>
            </g>
        </g>
        <g transform="matrix(0.997922,0,0,0.951749,-3729.1,2225.33)">
            <g transform="matrix(2.07623,0,0,2.17696,12471.6,912.97)">
                <path d="M560.067,882.054C582.867,882.054 598.017,860.004 598.017,835.704C598.017,817.104 586.317,806.004 569.817,806.004C559.467,806.004 550.767,811.104 544.917,818.754L547.317,807.804L539.517,807.804L517.317,907.854L525.117,907.854L533.967,867.954C538.917,876.204 548.067,882.054 560.067,882.054ZM559.317,875.004C547.617,875.004 538.917,869.004 535.317,861.804L542.967,827.004C548.067,819.504 557.367,813.054 567.567,813.054C580.767,813.054 589.467,822.354 589.467,837.204C589.467,856.254 577.617,875.004 559.317,875.004Z" style="fill-rule:nonzero;"/>
                <path d="M685.767,880.254L696.867,829.854C697.317,828.204 697.767,824.904 697.767,823.704C697.767,811.854 688.917,806.004 676.617,806.004C666.417,806.004 656.967,812.454 650.517,818.754L658.917,780.204L651.117,780.204L629.067,880.254L636.867,880.254L649.017,825.804C655.167,819.354 664.467,813.054 673.467,813.054C682.767,813.054 689.667,816.804 689.667,825.804C689.667,827.004 689.067,829.704 688.767,831.054L677.967,880.254L685.767,880.254Z" style="fill-rule:nonzero;"/>
                <path d="M765.267,882.054C788.217,882.054 805.167,860.754 805.167,837.804C805.167,818.604 792.717,806.004 773.217,806.004C750.267,806.004 733.317,827.304 733.317,850.254C733.317,869.454 745.767,882.054 765.267,882.054ZM765.417,875.004C750.567,875.004 741.867,865.104 741.867,849.954C741.867,831.204 754.917,813.054 773.067,813.054C787.917,813.054 796.617,822.954 796.617,838.104C796.617,856.854 783.567,875.004 765.417,875.004Z" style="fill-rule:nonzero;"/>
                <path d="M855.417,882.054C859.617,882.054 863.067,880.554 865.767,878.604L864.267,872.304C862.467,873.654 859.467,875.004 856.617,875.004C851.667,875.004 849.267,872.454 849.267,868.104C849.267,866.754 849.417,865.854 849.567,864.954L860.667,814.704L875.367,814.704L877.017,807.804L862.317,807.804L866.667,788.004L858.717,788.004L854.367,807.804L842.367,807.804L840.867,814.704L852.867,814.704L841.467,866.154C841.017,867.504 840.867,869.304 840.867,870.054C840.867,878.304 846.417,882.054 855.417,882.054Z" style="fill-rule:nonzero;"/>
                <path d="M933.267,882.054C956.217,882.054 973.167,860.754 973.167,837.804C973.167,818.604 960.717,806.004 941.217,806.004C918.267,806.004 901.317,827.304 901.317,850.254C901.317,869.454 913.767,882.054 933.267,882.054ZM933.417,875.004C918.567,875.004 909.867,865.104 909.867,849.954C909.867,831.204 922.917,813.054 941.067,813.054C955.917,813.054 964.617,822.954 964.617,838.104C964.617,856.854 951.567,875.004 933.417,875.004Z" style="fill-rule:nonzero;"/>
                <path d="M1032.57,909.654C1048.17,909.654 1061.22,901.704 1066.17,879.654L1082.22,807.804L1074.27,807.804L1071.42,820.104C1066.17,812.154 1055.52,806.004 1045.17,806.004C1022.07,806.004 1007.52,828.054 1007.52,851.304C1007.52,871.704 1019.67,881.454 1034.97,881.454C1045.77,881.454 1054.77,876.204 1060.62,868.704L1058.37,879.654C1054.92,896.454 1044.12,902.604 1032.57,902.604C1020.87,902.604 1012.02,899.304 1006.92,891.504L1001.37,897.354C1008.72,906.954 1019.07,909.654 1032.57,909.654ZM1037.82,874.404C1024.47,874.404 1015.92,865.404 1015.92,850.254C1015.92,832.254 1027.17,813.054 1045.47,813.054C1055.82,813.054 1065.87,818.304 1070.22,826.404L1062.27,861.504C1056.72,868.404 1047.12,874.404 1037.82,874.404Z" style="fill-rule:nonzero;"/>
                <path d="M1118.67,880.254L1130.37,827.454C1135.02,820.854 1143.57,814.254 1152.42,814.254C1154.97,814.254 1156.77,814.554 1157.67,814.704L1159.62,806.304C1146.57,806.304 1139.52,810.804 1132.02,819.504L1134.72,807.804L1126.92,807.804L1110.87,880.254L1118.67,880.254Z" style="fill-rule:nonzero;"/>
                <path d="M1219.77,806.004C1196.82,806.004 1181.67,827.904 1181.67,852.354C1181.67,870.954 1193.37,882.054 1210.02,882.054C1220.37,882.054 1228.92,876.954 1234.92,869.304L1232.37,880.254L1240.32,880.254L1256.37,807.804L1248.42,807.804L1245.87,820.104C1240.92,811.854 1231.62,806.004 1219.77,806.004ZM1220.37,813.054C1232.07,813.054 1240.77,819.054 1244.37,826.254L1236.72,861.054C1231.77,868.554 1222.32,875.004 1212.12,875.004C1198.92,875.004 1190.22,865.704 1190.22,850.854C1190.22,831.804 1202.22,813.054 1220.37,813.054Z" style="fill-rule:nonzero;"/>
                <path d="M1321.77,882.054C1344.57,882.054 1359.72,860.004 1359.72,835.704C1359.72,817.104 1348.02,806.004 1331.52,806.004C1321.17,806.004 1312.47,811.104 1306.62,818.754L1309.02,807.804L1301.22,807.804L1279.02,907.854L1286.82,907.854L1295.67,867.954C1300.62,876.204 1309.77,882.054 1321.77,882.054ZM1321.02,875.004C1309.32,875.004 1300.62,869.004 1297.02,861.804L1304.67,827.004C1309.77,819.504 1319.07,813.054 1329.27,813.054C1342.47,813.054 1351.17,822.354 1351.17,837.204C1351.17,856.254 1339.32,875.004 1321.02,875.004Z" style="fill-rule:nonzero;"/>
                <path d="M1447.47,880.254L1458.57,829.854C1459.02,828.204 1459.47,824.904 1459.47,823.704C1459.47,811.854 1450.62,806.004 1438.32,806.004C1428.12,806.004 1418.67,812.454 1412.22,818.754L1420.62,780.204L1412.82,780.204L1390.77,880.254L1398.57,880.254L1410.72,825.804C1416.87,819.354 1426.17,813.054 1435.17,813.054C1444.47,813.054 1451.37,816.804 1451.37,825.804C1451.37,827.004 1450.77,829.704 1450.47,831.054L1439.67,880.254L1447.47,880.254Z" style="fill-rule:nonzero;"/>
                <path d="M1481.37,908.154C1483.77,909.054 1486.92,909.654 1489.92,909.654C1498.17,909.654 1504.47,905.154 1510.17,896.154L1567.32,807.804L1558.17,807.804L1517.82,871.104L1505.67,807.804L1497.27,807.804L1511.52,880.704L1502.82,893.754C1498.47,900.204 1495.32,902.004 1491.42,902.004C1488.57,902.004 1485.87,901.404 1484.37,900.654L1481.37,908.154Z" style="fill-rule:nonzero;"/>
            </g>
        </g>
        <g transform="matrix(0.997922,0,0,0.951749,-3729.1,2225.33)">
            <g transform="matrix(2.12427,0,0,2.22733,11978.3,912.907)">
                <path d="M406.821,825.848L671.788,825.848" style="fill:none;stroke:black;stroke-width:1.97px;"/>
            </g>
        </g>
        <g transform="matrix(0.997922,0,0,0.951749,-3729.1,2225.33)">
            <g transform="matrix(2.12427,0,0,2.22733,14999.7,912.907)">
                <path d="M406.821,825.848L671.788,825.848" style="fill:none;stroke:black;stroke-width:2.95px;"/>
            </g>
        </g>
    </g>
</svg>
