<svg xmlns="http://www.w3.org/2000/svg" xmlns:xlink="http://www.w3.org/1999/xlink" width="4.285" height="4.831" viewBox="0 0 4.285 4.831">
  <defs>
    <linearGradient id="a" x1="2.143" y1="3.174" x2="2.143" y2="-1.111" gradientUnits="userSpaceOnUse">
      <stop offset="0" stop-color="#ef583d"/>
      <stop offset="1" stop-color="#ef583d" stop-opacity="0"/>
    </linearGradient>
  </defs>
  <g>
    <path d="M.352,2.823l1.439-.831a.7.7,0,0,1,.7,0l1.439.831a.706.706,0,0,1,.342.491.772.772,0,0,0,.01-.118V1.534A.7.7,0,0,0,3.933.925L2.494.094a.706.706,0,0,0-.7,0L.352.925A.7.7,0,0,0,0,1.534V3.2a.772.772,0,0,0,.01.118A.706.706,0,0,1,.352,2.823Z" fill="#ef583d"/>
    <path d="M3.933,2.008l-1.439.831a.7.7,0,0,1-.7,0L.352,2.008A.706.706,0,0,1,.01,1.517.772.772,0,0,0,0,1.635V3.3a.7.7,0,0,0,.352.609l1.439.831a.706.706,0,0,0,.7,0l1.439-.831A.7.7,0,0,0,4.285,3.3V1.635a.772.772,0,0,0-.01-.118A.706.706,0,0,1,3.933,2.008Z" opacity="0.9" fill="url(#a)"/>
  </g>
</svg>
