<svg xmlns="http://www.w3.org/2000/svg" >
  <symbol id="icon-heart" viewBox="0 0 1024 1024">
	    <title>heart</title>
	    <path class="path1" d="M934.176 168.48c-116.128-115.072-301.824-117.472-422.112-9.216-120.32-108.256-305.952-105.856-422.144 9.216-119.712 118.528-119.712 310.688 0 429.28 34.208 33.888 353.696 350.112 353.696 350.112 37.856 37.504 99.072 37.504 136.896 0 0 0 349.824-346.304 353.696-350.112 119.744-118.592 119.744-310.752-0.032-429.28zM888.576 552.576l-353.696 350.112c-12.576 12.512-33.088 12.512-45.6 0l-353.696-350.112c-94.4-93.44-94.4-245.472 0-338.912 91.008-90.080 237.312-93.248 333.088-7.104l43.392 39.040 43.36-39.040c95.808-86.144 242.112-83.008 333.12 7.104 94.4 93.408 94.4 245.44 0.032 338.912zM296.096 240.032c8.864 0 16 7.168 16 16s-7.168 16-16 16h-0.032c-57.408 0-103.968 46.56-103.968 103.968v0.032c0 8.832-7.168 16-16 16s-16-7.168-16-16v0c0-75.072 60.832-135.904 135.872-135.968 0.064 0 0.064-0.032 0.128-0.032z">
	    </path>
  </symbol>

  <symbol id="icon-cloud" viewBox="0 0 1024 1024">
	    <title>cloud</title>
	    <path class="path1" d="M829.248 420.576c-13.984-146.016-135.552-260.576-285.248-260.576-115.808 0-214.944 68.736-260.672 167.36-13.76-4.352-28.096-7.36-43.296-7.36-79.52 0-144 64.512-144 144 0 15.808 3.168 30.752 7.872 44.928-61.856 36.064-103.872 102.24-103.872 179.008 0 114.88 93.12 208 208 208v0.064l575.968-0.064c132.576 0 240-107.424 240-240 0-116.992-83.872-214.176-194.752-235.36zM784 831.936v0.064h-575.968c-79.392-0.064-144-64.64-144-144.064 0-51.2 26.976-97.44 72.128-123.744 43.872-25.184 46.88-30.176 28.48-75.424-3.104-9.312-4.608-17.408-4.608-24.736 0-44.128 35.872-80 80-80 0 0 20.992-1.504 43.296 7.36 36.704 14.624 40.704 0.64 58.048-37.088 36.704-79.136 116.224-130.304 202.624-130.304 115.2 0 210.432 87.136 221.568 202.688 3.936 45.824 3.936 45.824 51.68 56.736 82.752 15.808 142.752 88.384 142.752 172.512 0 97.056-78.944 176-176 176z">
    </path>
  </symbol>

  <symbol id="icon-star" viewBox="0 0 1024 1024">
	    <title>star</title>
    	<path class="path1" d="M1020.192 401.824c-8.864-25.568-31.616-44.288-59.008-48.352l-266.432-39.616-115.808-240.448c-12.192-25.248-38.272-41.408-66.944-41.408s-54.752 16.16-66.944 41.408l-115.808 240.448-266.464 39.616c-27.36 4.064-50.112 22.784-58.944 48.352-8.8 25.632-2.144 53.856 17.184 73.12l195.264 194.944-45.28 270.432c-4.608 27.232 7.2 54.56 30.336 70.496 12.704 8.736 27.648 13.184 42.592 13.184 12.288 0 24.608-3.008 35.776-8.992l232.288-125.056 232.32 125.056c11.168 5.984 23.488 8.992 35.744 8.992 14.944 0 29.888-4.448 42.624-13.184 23.136-15.936 34.88-43.264 30.304-70.496l-45.312-270.432 195.328-194.944c19.296-19.296 25.92-47.52 17.184-73.12zM754.816 619.616c-16.384 16.32-23.808 39.328-20.064 61.888l45.312 270.432-232.32-124.992c-11.136-6.016-23.424-8.992-35.776-8.992-12.288 0-24.608 3.008-35.744 8.992l-232.32 124.992 45.312-270.432c3.776-22.56-3.648-45.568-20.032-61.888l-195.264-194.944 266.432-39.68c24.352-3.616 45.312-18.848 55.776-40.576l115.872-240.384 115.84 240.416c10.496 21.728 31.424 36.928 55.744 40.576l266.496 39.68-195.264 194.912z">
	    </path>
  </symbol>

  <symbol id="icon-bulb" viewBox="0 0 1024 1024">
	    <title>bulb</title>
    	<path class="path1" d="M512 0c-194.432 0-352 157.568-352 352 0 128.992 118.016 265.696 160.992 385.76 64.096 179.040 56.992 286.24 191.008 286.24 136 0 126.88-106.688 191.008-285.504 43.104-120.32 160.992-258.496 160.992-386.496 0-194.432-157.632-352-352-352zM594.944 869.632l-158.656 19.808c-5.664-16.384-11.744-35.552-19.136-60.576-0.096-0.32-0.224-0.672-0.288-0.992l198.016-24.736c-2.816 9.44-5.824 19.36-8.448 28.256-4.192 14.368-7.936 26.848-11.488 38.24zM407.552 797.056c-5.824-19.264-12.384-39.552-19.68-61.056h248.512c-3.936 11.488-7.872 23.008-11.264 33.888l-217.568 27.168zM512 960c-32.416 0-47.328-3.744-63.904-40l135.616-16.992c-19.648 52.928-33.952 56.992-71.712 56.992zM661.504 672h-298.656c-15.936-34.56-35.072-69.12-53.952-102.944-41.76-74.72-84.896-152-84.896-217.056 0-158.816 129.184-288 288-288s288 129.184 288 288c0 64.576-43.2 142.272-84.992 217.44-18.688 33.696-37.696 68.192-53.504 102.56zM512 160c8.8 0 16 7.168 16 16s-7.168 16-16 16c-88.224 0-160 71.776-160 160 0 8.832-7.168 16-16 16s-16-7.168-16-16c0-105.888 86.112-192 192-192z">
    	</path>
  </symbol>

</svg>