<svg width="56" height="56" viewBox="0 0 56 56" fill="none" xmlns="http://www.w3.org/2000/svg">
<circle cx="28" cy="28" r="28" fill="#EF583D"/>
<g clip-path="url(#clip0_30_291)">
<path d="M17.9715 29.8114L26.0313 25.157C26.6273 24.8129 27.3034 24.6318 27.9916 24.6318C28.6798 24.6318 29.3559 24.8129 29.9519 25.157L38.0117 29.8114C38.5129 30.1016 38.9442 30.4983 39.2752 30.9735C39.6062 31.4487 39.8288 31.9908 39.9272 32.5615C39.9628 32.3429 39.9815 32.122 39.9832 31.9006V22.5918C39.9865 21.9015 39.8075 21.2226 39.4643 20.6236C39.121 20.0247 38.6258 19.527 38.0285 19.1808L29.9687 14.5265C29.3716 14.1856 28.696 14.0063 28.0084 14.0063C27.3209 14.0063 26.6452 14.1856 26.0481 14.5265L17.9715 19.1808C17.3711 19.5248 16.8725 20.0216 16.5262 20.6207C16.1799 21.2198 15.9984 21.8999 16 22.5918V31.923C16.0017 32.1444 16.0205 32.3653 16.056 32.5839C16.1514 32.0092 16.3725 31.4627 16.7037 30.9834C17.0348 30.5041 17.4677 30.1039 17.9715 29.8114Z" fill="white"/>
<path opacity="0.9" d="M38.0285 25.2466L29.9687 29.901C29.3727 30.2451 28.6966 30.4263 28.0084 30.4263C27.3202 30.4263 26.6441 30.2451 26.0481 29.901L17.9715 25.2466C17.4704 24.9565 17.039 24.5598 16.708 24.0846C16.377 23.6094 16.1544 23.0673 16.056 22.4966C16.0205 22.7151 16.0017 22.9361 16 23.1575V32.483C15.9984 33.175 16.1799 33.8551 16.5262 34.4542C16.8725 35.0532 17.3711 35.55 17.9715 35.894L26.0313 40.5484C26.6284 40.8892 27.3041 41.0685 27.9916 41.0685C28.6792 41.0685 29.3548 40.8892 29.9519 40.5484L38.0117 35.894C38.6152 35.5522 39.1172 35.0563 39.4665 34.4571C39.8159 33.8578 39.9999 33.1767 40 32.483V23.1575C39.9983 22.9361 39.9796 22.7151 39.944 22.4966C39.8456 23.0673 39.623 23.6094 39.292 24.0846C38.961 24.5598 38.5297 24.9565 38.0285 25.2466Z" fill="url(#paint0_linear_30_291)"/>
</g>
<defs>
<linearGradient id="paint0_linear_30_291" x1="28.0028" y1="31.7773" x2="28.0028" y2="7.77733" gradientUnits="userSpaceOnUse">
<stop stop-color="white"/>
<stop offset="1" stop-color="white" stop-opacity="0"/>
</linearGradient>
<clipPath id="clip0_30_291">
<rect width="24" height="27.0581" fill="white" transform="translate(16 14)"/>
</clipPath>
</defs>
</svg>
